<svg width="86" height="84" viewBox="0 0 86 84" fill="none" xmlns="http://www.w3.org/2000/svg">
<path opacity="0.4" d="M23.5411 70.3323C27.0641 70.3323 29.9503 73.2185 29.9503 76.7839C29.9503 80.3069 27.0641 83.1931 23.5411 83.1931C19.9757 83.1931 17.0895 80.3069 17.0895 76.7839C17.0895 73.2185 19.9757 70.3323 23.5411 70.3323ZM71.2918 70.3323C74.8148 70.3323 77.701 73.2185 77.701 76.7839C77.701 80.3069 74.8148 83.1931 71.2918 83.1931C67.7264 83.1931 64.8402 80.3069 64.8402 76.7839C64.8402 73.2185 67.7264 70.3323 71.2918 70.3323Z" fill="#0057FF"/>
<path d="M3.79673 0.0061733L4.22928 0.0411266L14.3524 1.56915C15.7956 1.82806 16.8567 3.01228 16.984 4.45541L17.7905 13.9631C17.9178 15.3256 19.0214 16.3443 20.3796 16.3443H77.7017C80.2908 16.3443 81.9886 17.2356 83.6865 19.1881C85.3843 21.1406 85.6814 23.9419 85.2994 26.4844L81.2671 54.3284C80.5031 59.6807 75.919 63.6238 70.5285 63.6238H24.2209C18.5757 63.6238 13.9068 59.2944 13.4399 53.6959L9.53492 7.42657L3.12571 6.323C1.42791 6.02588 0.239446 4.37052 0.536562 2.67272C0.833677 0.932473 2.48904 -0.213544 4.22928 0.0411266L3.79673 0.0061733ZM63.7373 32.0447H51.98C50.1973 32.0447 48.7966 33.4454 48.7966 35.2281C48.7966 36.9683 50.1973 38.4115 51.98 38.4115H63.7373C65.52 38.4115 66.9206 36.9683 66.9206 35.2281C66.9206 33.4454 65.52 32.0447 63.7373 32.0447Z" fill="#0057FF"/>
</svg>
