<svg width="286" height="151" viewBox="0 0 286 151" fill="none" xmlns="http://www.w3.org/2000/svg">
<path d="M71.7218 7.77348C74.4638 14.0054 70.4754 34.9447 70.4754 34.9447C70.4754 34.9447 51.7796 23.9765 49.0376 17.7446C46.2955 11.5126 49.0376 4.2836 55.2695 1.54156C61.5014 -1.20049 68.9797 1.54156 71.7218 7.77348Z" fill="#83BF4F"/>
<path d="M76.458 36.191H69.9768C69.9768 25.4721 75.9595 7.27493 99.8901 7.27493V13.7561C78.203 13.7561 76.458 34.1968 76.458 36.191Z" fill="#947151"/>
<path d="M73.2174 34.9447C55.0202 16.4982 0.927124 15.7503 0.927124 68.597C0.927124 102 40.3129 150.111 57.513 150.111C65.2406 150.111 67.9826 145.125 72.7189 145.125C77.2059 145.125 78.7015 150.111 88.6726 150.111C105.873 150.111 145.508 102.249 145.508 68.597C145.508 15.7503 91.4146 16.4982 73.2174 34.9447Z" fill="#EF4D3C"/>
<path d="M51.7032 99.7269V71.8079H58.1645V83.0952H67.8165V71.8079H74.2777V99.7269H67.8165V88.6391H58.1645V99.7269H51.7032ZM98.4137 89.1177C98.4137 89.9154 98.3605 90.8061 98.2541 91.7899H84.0553C84.1085 93.0396 84.5339 94.0102 85.3316 94.7015C86.1293 95.3928 87.2062 95.7385 88.5622 95.7385C90.4235 95.7385 91.62 95.1402 92.1518 93.9437H98.1345C97.842 95.8315 96.805 97.3737 95.0235 98.5703C93.2686 99.7402 91.1148 100.325 88.5622 100.325C85.2917 100.325 82.7125 99.4211 80.8247 97.613C78.9368 95.805 77.9929 93.3055 77.9929 90.1148C77.9929 86.9772 78.9368 84.5044 80.8247 82.6963C82.7125 80.8616 85.2253 79.9443 88.3628 79.9443C91.3409 79.9443 93.7605 80.7952 95.6218 82.4969C97.483 84.1986 98.4137 86.4056 98.4137 89.1177ZM84.0553 88.0009H92.3911C92.3646 86.7246 92.0056 85.7408 91.3143 85.0495C90.6229 84.3582 89.6258 84.0125 88.3229 84.0125C87.0201 84.0125 85.9831 84.3847 85.212 85.1293C84.4675 85.8472 84.0819 86.8044 84.0553 88.0009ZM110.03 100.245C107.238 100.245 105.031 99.3015 103.409 97.4136C101.787 95.5258 100.976 93.0928 100.976 90.1148C100.976 87.1899 101.814 84.7703 103.489 82.8558C105.164 80.9414 107.371 79.9842 110.109 79.9842C111.466 79.9842 112.675 80.2767 113.739 80.8616C114.802 81.4466 115.6 82.2443 116.132 83.2547V80.5027H122.194V99.7269H116.132V97.0148C115.6 97.972 114.776 98.7564 113.659 99.368C112.569 99.9529 111.359 100.245 110.03 100.245ZM111.785 95.1801C113.247 95.1801 114.377 94.7015 115.175 93.7443C115.972 92.787 116.371 91.5772 116.371 90.1148C116.371 88.679 115.972 87.4824 115.175 86.5252C114.377 85.568 113.247 85.0894 111.785 85.0894C110.402 85.0894 109.285 85.5547 108.434 86.4853C107.61 87.416 107.198 88.6258 107.198 90.1148C107.198 91.6038 107.61 92.8269 108.434 93.7842C109.285 94.7148 110.402 95.1801 111.785 95.1801ZM127.261 99.7269V71.8079H133.363V99.7269H127.261ZM148.491 94.9807C149.342 94.9807 150.046 94.9408 150.605 94.861V99.7269C149.435 99.9396 148.079 100.046 146.537 100.046C145.845 100.046 145.234 100.006 144.702 99.9263C144.17 99.8466 143.572 99.6737 142.907 99.4078C142.242 99.1154 141.697 98.7298 141.272 98.2512C140.846 97.7726 140.474 97.0813 140.155 96.1772C139.863 95.2732 139.716 94.2096 139.716 92.9865V85.3287H136.685V80.5027H139.716V74.7992H145.819V80.5027H150.166V85.3287H145.819V91.7102C145.819 93.0131 146.045 93.8905 146.497 94.3425C146.949 94.768 147.613 94.9807 148.491 94.9807ZM166.421 79.9842C171.101 79.9842 173.441 82.6032 173.441 87.8414V99.7269H167.299V89.8356C167.299 88.1871 167.033 86.9905 166.501 86.246C165.996 85.5015 165.132 85.1293 163.908 85.1293C161.436 85.1293 160.199 86.6449 160.199 89.6761V99.7269H154.097V71.8079H160.199V83.2946C161.342 81.0876 163.416 79.9842 166.421 79.9842ZM178.523 99.7269V71.8079H195.593V77.2322H184.984V84.7703H195.593V90.0749H184.984V99.7269H178.523ZM199.901 99.7269V80.5027H206.004V84.531C206.323 83.1483 206.974 82.0848 207.958 81.3402C208.969 80.5691 210.085 80.1836 211.308 80.1836C211.947 80.1836 212.478 80.2368 212.904 80.3431V86.0067C212.186 85.9269 211.574 85.8871 211.069 85.8871C207.692 85.8871 206.004 88.0275 206.004 92.3084V99.7269H199.901ZM223.082 100.245C220.796 100.245 219.041 99.5674 217.818 98.2113C216.595 96.8287 215.983 94.8876 215.983 92.3882V80.5027H222.165V91.0321C222.165 93.7443 223.229 95.1003 225.356 95.1003C227.829 95.1003 229.065 93.6778 229.065 90.8327V80.5027H235.127V99.7269H229.065V96.9749C227.922 99.1552 225.927 100.245 223.082 100.245ZM245.959 77.7108C245.241 78.4287 244.337 78.7876 243.246 78.7876C242.156 78.7876 241.252 78.4287 240.534 77.7108C239.843 76.9929 239.497 76.1154 239.497 75.0784C239.497 74.0148 239.843 73.1241 240.534 72.4062C241.252 71.6882 242.156 71.3293 243.246 71.3293C244.337 71.3293 245.241 71.7015 245.959 72.446C246.676 73.164 247.035 74.0414 247.035 75.0784C247.035 76.1154 246.676 76.9929 245.959 77.7108ZM240.175 99.7269V80.5027H246.278V99.7269H240.175ZM261.406 94.9807C262.256 94.9807 262.961 94.9408 263.519 94.861V99.7269C262.35 99.9396 260.993 100.046 259.451 100.046C258.76 100.046 258.148 100.006 257.617 99.9263C257.085 99.8466 256.487 99.6737 255.822 99.4078C255.157 99.1154 254.612 98.7298 254.187 98.2512C253.761 97.7726 253.389 97.0813 253.07 96.1772C252.777 95.2732 252.631 94.2096 252.631 92.9865V85.3287H249.6V80.5027H252.631V74.7992H258.733V80.5027H263.081V85.3287H258.733V91.7102C258.733 93.0131 258.959 93.8905 259.411 94.3425C259.863 94.768 260.528 94.9807 261.406 94.9807ZM274.592 100.325C271.827 100.325 269.62 99.7269 267.972 98.5304C266.323 97.3339 265.499 95.805 265.499 93.9437H271.561C271.561 94.6084 271.854 95.1535 272.439 95.5789C273.024 96.0044 273.781 96.2171 274.712 96.2171C275.377 96.2171 275.909 96.0576 276.307 95.7385C276.733 95.4194 276.946 94.9807 276.946 94.4223C276.946 93.5448 276.48 92.9998 275.55 92.787L270.843 91.5905C269.274 91.1917 268.078 90.5136 267.254 89.5564C266.429 88.5992 266.017 87.4293 266.017 86.0466C266.017 84.2385 266.762 82.7761 268.251 81.6593C269.74 80.516 271.734 79.9443 274.233 79.9443C276.999 79.9443 279.113 80.4761 280.575 81.5397C282.064 82.6032 282.809 84.0657 282.809 85.9269H276.786C276.786 85.2622 276.547 84.7437 276.068 84.3715C275.616 83.9992 274.978 83.8131 274.154 83.8131C273.489 83.8131 272.957 83.9593 272.558 84.2518C272.159 84.5443 271.96 84.9298 271.96 85.4084C271.96 86.2593 272.505 86.831 273.595 87.1235L278.142 88.3599C279.658 88.7587 280.841 89.4235 281.692 90.3541C282.569 91.2581 283.008 92.3749 283.008 93.7044C283.008 95.6986 282.25 97.3073 280.735 98.5304C279.246 99.7269 277.198 100.325 274.592 100.325Z" fill="#EF4D3C"/>
<path d="M51.7032 99.7269H49.2105V102.22H51.7032V99.7269ZM51.7032 71.8079V69.3151H49.2105V71.8079H51.7032ZM58.1645 71.8079H60.6573V69.3151H58.1645V71.8079ZM58.1645 83.0952H55.6717V85.5879H58.1645V83.0952ZM67.8165 83.0952V85.5879H70.3093V83.0952H67.8165ZM67.8165 71.8079V69.3151H65.3237V71.8079H67.8165ZM74.2777 71.8079H76.7705V69.3151H74.2777V71.8079ZM74.2777 99.7269V102.22H76.7705V99.7269H74.2777ZM67.8165 99.7269H65.3237V102.22H67.8165V99.7269ZM67.8165 88.6391H70.3093V86.1463H67.8165V88.6391ZM58.1645 88.6391V86.1463H55.6717V88.6391H58.1645ZM58.1645 99.7269V102.22H60.6573V99.7269H58.1645ZM54.196 99.7269V71.8079H49.2105V99.7269H54.196ZM51.7032 74.3007H58.1645V69.3151H51.7032V74.3007ZM55.6717 71.8079V83.0952H60.6573V71.8079H55.6717ZM58.1645 85.5879H67.8165V80.6024H58.1645V85.5879ZM70.3093 83.0952V71.8079H65.3237V83.0952H70.3093ZM67.8165 74.3007H74.2777V69.3151H67.8165V74.3007ZM71.785 71.8079V99.7269H76.7705V71.8079H71.785ZM74.2777 97.2341H67.8165V102.22H74.2777V97.2341ZM70.3093 99.7269V88.6391H65.3237V99.7269H70.3093ZM67.8165 86.1463H58.1645V91.1318H67.8165V86.1463ZM55.6717 88.6391V99.7269H60.6573V88.6391H55.6717ZM58.1645 97.2341H51.7032V102.22H58.1645V97.2341ZM98.2541 91.7899V94.2827H100.492L100.732 92.0579L98.2541 91.7899ZM84.0553 91.7899V89.2972H81.4542L81.5648 91.8959L84.0553 91.7899ZM85.3316 94.7015L83.699 96.5852L85.3316 94.7015ZM92.1518 93.9437V91.4509H90.5319L89.8739 92.9313L92.1518 93.9437ZM98.1345 93.9437L100.598 94.3253L101.043 91.4509H98.1345V93.9437ZM95.0235 98.5703L96.4063 100.644L96.4134 100.64L95.0235 98.5703ZM80.8247 97.613L79.1005 99.4133L80.8247 97.613ZM80.8247 82.6963L82.5489 84.4966L82.5555 84.4903L82.562 84.484L80.8247 82.6963ZM95.6218 82.4969L93.9397 84.3366H93.9397L95.6218 82.4969ZM84.0553 88.0009L81.5632 87.9455L81.5065 90.4937H84.0553V88.0009ZM92.3911 88.0009V90.4937H94.9364L94.8834 87.949L92.3911 88.0009ZM91.3143 85.0495L93.0769 83.2868V83.2868L91.3143 85.0495ZM85.212 85.1293L86.9423 86.9237L86.9434 86.9226L85.212 85.1293ZM95.9209 89.1177C95.9209 89.8076 95.8747 90.607 95.7758 91.522L100.732 92.0579C100.846 91.0052 100.906 90.0231 100.906 89.1177H95.9209ZM98.2541 89.2972H84.0553V94.2827H98.2541V89.2972ZM81.5648 91.8959C81.6413 93.6935 82.2874 95.3618 83.699 96.5852L86.9642 92.8177C86.7805 92.6585 86.5757 92.3858 86.5458 91.684L81.5648 91.8959ZM83.699 96.5852C85.0666 97.7705 86.7814 98.2313 88.5622 98.2313V93.2457C87.631 93.2457 87.192 93.0151 86.9642 92.8177L83.699 96.5852ZM88.5622 98.2313C90.9244 98.2313 93.3326 97.4247 94.4298 94.9561L89.8739 92.9313C89.8483 92.9889 89.8341 93.0135 89.7408 93.0602C89.5969 93.1321 89.2485 93.2457 88.5622 93.2457V98.2313ZM92.1518 96.4365H98.1345V91.4509H92.1518V96.4365ZM95.6711 93.562C95.4989 94.6736 94.9162 95.6395 93.6336 96.5009L96.4134 100.64C98.6938 99.108 100.185 96.9895 100.598 94.3253L95.6711 93.562ZM93.6408 96.4962C92.3746 97.3403 90.7274 97.8324 88.5622 97.8324V102.818C91.5022 102.818 94.1626 102.14 96.4062 100.644L93.6408 96.4962ZM88.5622 97.8324C85.765 97.8324 83.8634 97.0717 82.5489 95.8128L79.1005 99.4133C81.5617 101.771 84.8185 102.818 88.5622 102.818V97.8324ZM82.5489 95.8128C81.2571 94.5755 80.4857 92.7865 80.4857 90.1148H75.5001C75.5001 93.8246 76.6166 97.0344 79.1005 99.4133L82.5489 95.8128ZM80.4857 90.1148C80.4857 87.5103 81.2487 85.7418 82.5489 84.4966L79.1005 80.896C76.625 83.267 75.5001 86.4442 75.5001 90.1148H80.4857ZM82.562 84.484C83.8972 83.1863 85.7411 82.4371 88.3628 82.4371V77.4515C84.7094 77.4515 81.5279 78.5369 79.0874 80.9087L82.562 84.484ZM88.3628 82.4371C90.8378 82.4371 92.6191 83.1292 93.9397 84.3366L97.3038 80.6572C94.9019 78.4611 91.8439 77.4515 88.3628 77.4515V82.4371ZM93.9397 84.3366C95.2423 85.5276 95.9209 87.0462 95.9209 89.1177H100.906C100.906 85.7649 99.7237 82.8697 97.3038 80.6572L93.9397 84.3366ZM84.0553 90.4937H92.3911V85.5082H84.0553V90.4937ZM94.8834 87.949C94.8476 86.233 94.3489 84.5588 93.0769 83.2868L89.5516 86.8121C89.6623 86.9228 89.8815 87.2163 89.8989 88.0528L94.8834 87.949ZM93.0769 83.2868C91.7788 81.9887 90.0597 81.5197 88.3229 81.5197V86.5053C89.1919 86.5053 89.4671 86.7276 89.5516 86.8121L93.0769 83.2868ZM88.3229 81.5197C86.5217 81.5197 84.8127 82.0497 83.4805 83.336L86.9434 86.9226C87.1535 86.7198 87.5184 86.5053 88.3229 86.5053V81.5197ZM83.4816 83.3348C82.189 84.5814 81.6019 86.2033 81.5632 87.9455L86.5475 88.0563C86.5619 87.4055 86.746 87.113 86.9423 86.9237L83.4816 83.3348ZM103.409 97.4136L101.518 99.0381L103.409 97.4136ZM103.489 82.8559L105.365 84.4973L103.489 82.8559ZM113.739 80.8616L112.538 83.0458L113.739 80.8616ZM116.132 83.2547L113.926 84.4157L118.625 83.2547H116.132ZM116.132 80.5027V78.0099H113.639V80.5027H116.132ZM122.194 80.5027H124.687V78.0099H122.194V80.5027ZM122.194 99.7269V102.22H124.687V99.7269H122.194ZM116.132 99.7269H113.639V102.22H116.132V99.7269ZM116.132 97.0148H118.625V87.3949L113.953 95.8042L116.132 97.0148ZM113.659 99.368L114.838 101.564L114.847 101.559L114.856 101.554L113.659 99.368ZM115.175 93.7443L113.26 92.1484H113.26L115.175 93.7443ZM115.175 86.5252L113.26 88.121L115.175 86.5252ZM108.434 86.4853L106.595 84.8033L106.581 84.8178L106.568 84.8325L108.434 86.4853ZM108.434 93.7842L106.545 95.4107L106.57 95.4388L106.595 95.4662L108.434 93.7842ZM110.03 97.7526C107.865 97.7526 106.387 97.0548 105.3 95.7892L101.518 99.0381C103.675 101.548 106.61 102.738 110.03 102.738V97.7526ZM105.3 95.7892C104.139 94.4385 103.469 92.6195 103.469 90.1148H98.4832C98.4832 93.5662 99.4346 96.613 101.518 99.0381L105.3 95.7892ZM103.469 90.1148C103.469 87.6976 104.146 85.8899 105.365 84.4973L101.613 81.2143C99.4808 83.6507 98.4832 86.6823 98.4832 90.1148H103.469ZM105.365 84.4973C106.527 83.169 108.027 82.4769 110.109 82.4769V77.4914C106.714 77.4914 103.801 78.7138 101.613 81.2143L105.365 84.4973ZM110.109 82.4769C111.096 82.4769 111.884 82.6861 112.538 83.0458L114.94 78.6774C113.467 77.8672 111.835 77.4914 110.109 77.4914V82.4769ZM112.538 83.0458C113.202 83.4111 113.636 83.8652 113.926 84.4157L118.338 82.0937C117.564 80.6234 116.403 79.4821 114.94 78.6774L112.538 83.0458ZM118.625 83.2547V80.5027H113.639V83.2547H118.625ZM116.132 82.9954H122.194V78.0099H116.132V82.9954ZM119.702 80.5027V99.7269H124.687V80.5027H119.702ZM122.194 97.2341H116.132V102.22H122.194V97.2341ZM118.625 99.7269V97.0148H113.639V99.7269H118.625ZM113.953 95.8042C113.685 96.2867 113.234 96.7586 112.462 97.1816L114.856 101.554C116.318 100.754 117.516 99.6573 118.311 98.2254L113.953 95.8042ZM112.481 97.1714C111.78 97.5475 110.979 97.7526 110.03 97.7526V102.738C111.739 102.738 113.358 102.358 114.838 101.564L112.481 97.1714ZM111.785 97.6729C113.844 97.6729 115.734 96.9669 117.09 95.3401L113.26 92.1484C113.02 92.4361 112.65 92.6873 111.785 92.6873V97.6729ZM117.09 95.3401C118.324 93.8595 118.864 92.0541 118.864 90.1148H113.879C113.879 91.1004 113.621 91.7146 113.26 92.1484L117.09 95.3401ZM118.864 90.1148C118.864 88.1896 118.317 86.4017 117.09 84.9294L113.26 88.121C113.628 88.5632 113.879 89.1684 113.879 90.1148H118.864ZM117.09 84.9294C115.734 83.3026 113.844 82.5966 111.785 82.5966V87.5821C112.65 87.5821 113.02 87.8334 113.26 88.121L117.09 84.9294ZM111.785 82.5966C109.777 82.5966 107.966 83.303 106.595 84.8033L110.274 88.1674C110.604 87.8064 111.026 87.5821 111.785 87.5821V82.5966ZM106.568 84.8325C105.263 86.3057 104.705 88.1434 104.705 90.1148H109.691C109.691 89.1081 109.957 88.5262 110.3 88.1381L106.568 84.8325ZM104.705 90.1148C104.705 92.0885 105.264 93.9227 106.545 95.4107L110.323 92.1576C109.956 91.7312 109.691 91.1192 109.691 90.1148H104.705ZM106.595 95.4662C107.966 96.9665 109.777 97.6729 111.785 97.6729V92.6873C111.026 92.6873 110.604 92.4631 110.274 92.1021L106.595 95.4662ZM127.261 99.7269H124.768V102.22H127.261V99.7269ZM127.261 71.8079V69.3151H124.768V71.8079H127.261ZM133.363 71.8079H135.856V69.3151H133.363V71.8079ZM133.363 99.7269V102.22H135.856V99.7269H133.363ZM129.753 99.7269V71.8079H124.768V99.7269H129.753ZM127.261 74.3007H133.363V69.3151H127.261V74.3007ZM130.87 71.8079V99.7269H135.856V71.8079H130.87ZM133.363 97.2341H127.261V102.22H133.363V97.2341ZM150.605 94.861H153.098V91.9868L150.252 92.3933L150.605 94.861ZM150.605 99.7269L151.051 102.179L153.098 101.807V99.7269H150.605ZM144.702 99.9263L145.072 97.4611L144.702 99.9263ZM142.907 99.4078L141.903 101.69L141.942 101.707L141.981 101.722L142.907 99.4078ZM141.272 98.2512L139.409 99.9073L141.272 98.2512ZM140.155 96.1772L137.783 96.9445L137.793 96.9758L137.804 97.0069L140.155 96.1772ZM139.716 85.3287H142.209V82.8359H139.716V85.3287ZM136.685 85.3287H134.192V87.8214H136.685V85.3287ZM136.685 80.5027V78.0099H134.192V80.5027H136.685ZM139.716 80.5027V82.9954H142.209V80.5027H139.716ZM139.716 74.7992V72.3064H137.224V74.7992H139.716ZM145.819 74.7992H148.311V72.3064H145.819V74.7992ZM145.819 80.5027H143.326V82.9954H145.819V80.5027ZM150.166 80.5027H152.659V78.0099H150.166V80.5027ZM150.166 85.3287V87.8214H152.659V85.3287H150.166ZM145.819 85.3287V82.8359H143.326V85.3287H145.819ZM146.497 94.3425L144.734 96.1052L144.761 96.1319L144.788 96.1578L146.497 94.3425ZM148.491 97.4734C149.407 97.4734 150.239 97.4313 150.957 97.3287L150.252 92.3933C149.853 92.4503 149.277 92.4879 148.491 92.4879V97.4734ZM148.112 94.861V99.7269H153.098V94.861H148.112ZM150.159 97.2744C149.172 97.4538 147.971 97.5532 146.537 97.5532V102.539C148.187 102.539 149.698 102.425 151.051 102.179L150.159 97.2744ZM146.537 97.5532C145.936 97.5532 145.452 97.5182 145.072 97.4611L144.332 102.392C145.015 102.494 145.754 102.539 146.537 102.539V97.5532ZM145.072 97.4611C144.781 97.4176 144.374 97.3097 143.833 97.0934L141.981 101.722C142.77 102.038 143.559 102.276 144.332 102.392L145.072 97.4611ZM143.911 97.1262C143.53 96.9586 143.292 96.7721 143.135 96.5951L139.409 99.9073C140.102 100.688 140.954 101.272 141.903 101.69L143.911 97.1262ZM143.135 96.5951C143.003 96.4467 142.766 96.0842 142.506 95.3476L137.804 97.0069C138.183 98.0783 138.69 99.0984 139.409 99.9073L143.135 96.5951ZM142.527 95.4099C142.334 94.8131 142.209 94.0199 142.209 92.9865H137.224C137.224 94.3993 137.391 95.7332 137.783 96.9445L142.527 95.4099ZM142.209 92.9865V85.3287H137.224V92.9865H142.209ZM139.716 82.8359H136.685V87.8214H139.716V82.8359ZM139.178 85.3287V80.5027H134.192V85.3287H139.178ZM136.685 82.9954H139.716V78.0099H136.685V82.9954ZM142.209 80.5027V74.7992H137.224V80.5027H142.209ZM139.716 77.292H145.819V72.3064H139.716V77.292ZM143.326 74.7992V80.5027H148.311V74.7992H143.326ZM145.819 82.9954H150.166V78.0099H145.819V82.9954ZM147.673 80.5027V85.3287H152.659V80.5027H147.673ZM150.166 82.8359H145.819V87.8214H150.166V82.8359ZM143.326 85.3287V91.7102H148.311V85.3287H143.326ZM143.326 91.7102C143.326 93.0843 143.519 94.8898 144.734 96.1052L148.259 92.5799C148.453 92.774 148.448 92.9014 148.402 92.7236C148.359 92.5552 148.311 92.2349 148.311 91.7102H143.326ZM144.788 96.1578C145.864 97.1703 147.242 97.4734 148.491 97.4734V92.4879C148.247 92.4879 148.127 92.4575 148.094 92.447C148.071 92.4397 148.129 92.4553 148.205 92.5273L144.788 96.1578ZM173.441 99.7269V102.22H175.934V99.7269H173.441ZM167.299 99.7269H164.806V102.22H167.299V99.7269ZM166.501 86.246L164.438 87.6457L164.455 87.6705L164.472 87.6949L166.501 86.246ZM160.199 99.7269V102.22H162.692V99.7269H160.199ZM154.097 99.7269H151.604V102.22H154.097V99.7269ZM154.097 71.8079V69.3151H151.604V71.8079H154.097ZM160.199 71.8079H162.692V69.3151H160.199V71.8079ZM160.199 83.2946H157.706L162.413 84.4413L160.199 83.2946ZM166.421 82.4769C168.299 82.4769 169.273 82.9897 169.827 83.6093C170.428 84.2824 170.948 85.5416 170.948 87.8414H175.934C175.934 84.903 175.283 82.2337 173.545 80.2877C171.758 78.2882 169.222 77.4914 166.421 77.4914V82.4769ZM170.948 87.8414V99.7269H175.934V87.8414H170.948ZM173.441 97.2341H167.299V102.22H173.441V97.2341ZM169.791 99.7269V89.8356H164.806V99.7269H169.791ZM169.791 89.8356C169.791 88.0318 169.522 86.1867 168.529 84.7971L164.472 87.6949C164.543 87.7943 164.806 88.3423 164.806 89.8356H169.791ZM168.564 84.8463C167.437 83.1867 165.632 82.6365 163.908 82.6365V87.622C164.278 87.622 164.445 87.6796 164.488 87.6978C164.505 87.7055 164.498 87.7047 164.479 87.6892C164.46 87.6732 164.445 87.6559 164.438 87.6457L168.564 84.8463ZM163.908 82.6365C162.138 82.6365 160.408 83.2036 159.195 84.6902C158.061 86.0797 157.706 87.8855 157.706 89.6761H162.692C162.692 88.4355 162.955 87.9678 163.058 87.8417C163.082 87.8127 163.205 87.622 163.908 87.622V82.6365ZM157.706 89.6761V99.7269H162.692V89.6761H157.706ZM160.199 97.2341H154.097V102.22H160.199V97.2341ZM156.59 99.7269V71.8079H151.604V99.7269H156.59ZM154.097 74.3007H160.199V69.3151H154.097V74.3007ZM157.706 71.8079V83.2946H162.692V71.8079H157.706ZM162.413 84.4413C163.03 83.2502 164.114 82.4769 166.421 82.4769V77.4914C162.719 77.4914 159.655 78.9251 157.986 82.1479L162.413 84.4413ZM178.523 99.7269H176.03V102.22H178.523V99.7269ZM178.523 71.8079V69.3151H176.03V71.8079H178.523ZM195.593 71.8079H198.086V69.3151H195.593V71.8079ZM195.593 77.2322V79.7249H198.086V77.2322H195.593ZM184.984 77.2322V74.7394H182.491V77.2322H184.984ZM184.984 84.7703H182.491V87.2631H184.984V84.7703ZM195.593 84.7703H198.086V82.2775H195.593V84.7703ZM195.593 90.0749V92.5677H198.086V90.0749H195.593ZM184.984 90.0749V87.5821H182.491V90.0749H184.984ZM184.984 99.7269V102.22H187.477V99.7269H184.984ZM181.016 99.7269V71.8079H176.03V99.7269H181.016ZM178.523 74.3007H195.593V69.3151H178.523V74.3007ZM193.101 71.8079V77.2322H198.086V71.8079H193.101ZM195.593 74.7394H184.984V79.7249H195.593V74.7394ZM182.491 77.2322V84.7703H187.477V77.2322H182.491ZM184.984 87.2631H195.593V82.2775H184.984V87.2631ZM193.101 84.7703V90.0749H198.086V84.7703H193.101ZM195.593 87.5821H184.984V92.5677H195.593V87.5821ZM182.491 90.0749V99.7269H187.477V90.0749H182.491ZM184.984 97.2341H178.523V102.22H184.984V97.2341ZM199.901 99.7269H197.409V102.22H199.901V99.7269ZM199.901 80.5027V78.0099H197.409V80.5027H199.901ZM206.004 80.5027H208.497V78.0099H206.004V80.5027ZM206.004 84.531H203.511L208.433 85.0915L206.004 84.531ZM207.958 81.3402L209.462 83.328L209.47 83.3219L207.958 81.3402ZM212.904 80.3431H215.397V78.3968L213.508 77.9248L212.904 80.3431ZM212.904 86.0067L212.628 88.4842L215.397 88.7918V86.0067H212.904ZM206.004 99.7269V102.22H208.497V99.7269H206.004ZM202.394 99.7269V80.5027H197.409V99.7269H202.394ZM199.901 82.9954H206.004V78.0099H199.901V82.9954ZM203.511 80.5027V84.531H208.497V80.5027H203.511ZM208.433 85.0915C208.641 84.188 209.013 83.6677 209.462 83.328L206.454 79.3525C204.935 80.5018 204.004 82.1087 203.575 83.9705L208.433 85.0915ZM209.47 83.3219C210.065 82.8684 210.654 82.6764 211.308 82.6764V77.6908C209.516 77.6908 207.872 78.2699 206.446 79.3586L209.47 83.3219ZM211.308 82.6764C211.826 82.6764 212.139 82.7214 212.299 82.7615L213.508 77.9248C212.818 77.7522 212.067 77.6908 211.308 77.6908V82.6764ZM210.411 80.3431V86.0067H215.397V80.3431H210.411ZM213.179 83.5292C212.405 83.4432 211.696 83.3943 211.069 83.3943V88.3798C211.453 88.3798 211.967 88.4107 212.628 88.4842L213.179 83.5292ZM211.069 83.3943C208.818 83.3943 206.742 84.1373 205.313 85.9486C203.973 87.6471 203.511 89.9077 203.511 92.3084H208.497C208.497 90.4282 208.879 89.4782 209.227 89.0362C209.487 88.707 209.943 88.3798 211.069 88.3798V83.3943ZM203.511 92.3084V99.7269H208.497V92.3084H203.511ZM206.004 97.2341H199.901V102.22H206.004V97.2341ZM217.818 98.2113L215.951 99.863L215.959 99.872L215.967 99.8809L217.818 98.2113ZM215.983 80.5027V78.0099H213.49V80.5027H215.983ZM222.165 80.5027H224.658V78.0099H222.165V80.5027ZM229.065 80.5027V78.0099H226.572V80.5027H229.065ZM235.127 80.5027H237.62V78.0099H235.127V80.5027ZM235.127 99.7269V102.22H237.62V99.7269H235.127ZM229.065 99.7269H226.572V102.22H229.065V99.7269ZM229.065 96.9749H231.558L226.857 95.8172L229.065 96.9749ZM223.082 97.7526C221.31 97.7526 220.305 97.2469 219.669 96.5417L215.967 99.8809C217.777 101.888 220.281 102.738 223.082 102.738V97.7526ZM219.685 96.5597C218.989 95.7728 218.476 94.4965 218.476 92.3882H213.49C213.49 95.2788 214.2 97.8845 215.951 99.863L219.685 96.5597ZM218.476 92.3882V80.5027H213.49V92.3882H218.476ZM215.983 82.9954H222.165V78.0099H215.983V82.9954ZM219.672 80.5027V91.0321H224.658V80.5027H219.672ZM219.672 91.0321C219.672 92.646 219.977 94.316 221.001 95.6217C222.116 97.0426 223.725 97.5931 225.356 97.5931V92.6076C225.085 92.6076 224.964 92.5642 224.935 92.5519C224.921 92.546 224.929 92.5507 224.924 92.5449C224.885 92.4945 224.658 92.1304 224.658 91.0321H219.672ZM225.356 97.5931C227.075 97.5931 228.79 97.0825 230.019 95.6687C231.19 94.3217 231.558 92.5604 231.558 90.8327H226.572C226.572 91.9501 226.322 92.3226 226.256 92.3982C226.249 92.4069 226.11 92.6076 225.356 92.6076V97.5931ZM231.558 90.8327V80.5027H226.572V90.8327H231.558ZM229.065 82.9954H235.127V78.0099H229.065V82.9954ZM232.635 80.5027V99.7269H237.62V80.5027H232.635ZM235.127 97.2341H229.065V102.22H235.127V97.2341ZM231.558 99.7269V96.9749H226.572V99.7269H231.558ZM226.857 95.8172C226.494 96.5098 226.046 96.951 225.516 97.2405C224.967 97.5408 224.19 97.7526 223.082 97.7526V102.738C224.819 102.738 226.463 102.405 227.908 101.615C229.372 100.814 230.493 99.6203 231.273 98.1326L226.857 95.8172ZM245.959 77.7108L244.196 75.9481V75.9481L245.959 77.7108ZM240.534 77.7108L238.739 79.4399L238.755 79.4568L238.772 79.4734L240.534 77.7108ZM240.534 72.4062L238.772 70.6435L238.755 70.6601L238.739 70.6771L240.534 72.4062ZM245.959 72.446L244.164 74.1764L244.18 74.1927L244.196 74.2087L245.959 72.446ZM240.175 99.7269H237.683V102.22H240.175V99.7269ZM240.175 80.5027V78.0099H237.683V80.5027H240.175ZM246.278 80.5027H248.77V78.0099H246.278V80.5027ZM246.278 99.7269V102.22H248.77V99.7269H246.278ZM244.196 75.9481C243.982 76.1617 243.729 76.2949 243.246 76.2949V81.2804C244.944 81.2804 246.499 80.6956 247.721 79.4734L244.196 75.9481ZM243.246 76.2949C242.763 76.2949 242.511 76.1617 242.297 75.9481L238.772 79.4734C239.994 80.6956 241.549 81.2804 243.246 81.2804V76.2949ZM242.33 75.9817C242.105 75.7487 241.99 75.4995 241.99 75.0784H237.004C237.004 76.7313 237.58 78.237 238.739 79.4399L242.33 75.9817ZM241.99 75.0784C241.99 74.612 242.118 74.3554 242.33 74.1352L238.739 70.6771C237.568 71.8927 237.004 73.4177 237.004 75.0784H241.99ZM242.297 74.1688C242.511 73.9552 242.763 73.8221 243.246 73.8221V68.8365C241.549 68.8365 239.994 69.4213 238.772 70.6435L242.297 74.1688ZM243.246 73.8221C243.701 73.8221 243.944 73.9478 244.164 74.1764L247.753 70.7157C246.538 69.4553 244.972 68.8365 243.246 68.8365V73.8221ZM244.196 74.2087C244.435 74.448 244.543 74.6867 244.543 75.0784H249.528C249.528 73.3961 248.918 71.8799 247.721 70.6834L244.196 74.2087ZM244.543 75.0784C244.543 75.4701 244.435 75.7088 244.196 75.9481L247.721 79.4734C248.918 78.2769 249.528 76.7607 249.528 75.0784H244.543ZM242.668 99.7269V80.5027H237.683V99.7269H242.668ZM240.175 82.9954H246.278V78.0099H240.175V82.9954ZM243.785 80.5027V99.7269H248.77V80.5027H243.785ZM246.278 97.2341H240.175V102.22H246.278V97.2341ZM263.519 94.861H266.012V91.9868L263.167 92.3933L263.519 94.861ZM263.519 99.7269L263.965 102.179L266.012 101.807V99.7269H263.519ZM257.617 99.9263L257.986 97.4611L257.617 99.9263ZM255.822 99.4078L254.818 101.69L254.857 101.707L254.896 101.722L255.822 99.4078ZM254.187 98.2512L252.323 99.9073L254.187 98.2512ZM253.07 96.1772L250.698 96.9445L250.708 96.9758L250.719 97.0069L253.07 96.1772ZM252.631 85.3287H255.124V82.8359H252.631V85.3287ZM249.6 85.3287H247.107V87.8214H249.6V85.3287ZM249.6 80.5027V78.0099H247.107V80.5027H249.6ZM252.631 80.5027V82.9954H255.124V80.5027H252.631ZM252.631 74.7992V72.3064H250.138V74.7992H252.631ZM258.733 74.7992H261.226V72.3064H258.733V74.7992ZM258.733 80.5027H256.241V82.9954H258.733V80.5027ZM263.081 80.5027H265.573V78.0099H263.081V80.5027ZM263.081 85.3287V87.8214H265.573V85.3287H263.081ZM258.733 85.3287V82.8359H256.241V85.3287H258.733ZM259.411 94.3425L257.649 96.1052L257.675 96.1319L257.703 96.1578L259.411 94.3425ZM261.406 97.4734C262.322 97.4734 263.154 97.4313 263.872 97.3287L263.167 92.3933C262.768 92.4503 262.191 92.4879 261.406 92.4879V97.4734ZM261.027 94.861V99.7269H266.012V94.861H261.027ZM263.074 97.2744C262.087 97.4538 260.885 97.5532 259.451 97.5532V102.539C261.102 102.539 262.613 102.425 263.965 102.179L263.074 97.2744ZM259.451 97.5532C258.851 97.5532 258.367 97.5182 257.986 97.4611L257.247 102.392C257.93 102.494 258.669 102.539 259.451 102.539V97.5532ZM257.986 97.4611C257.696 97.4176 257.288 97.3097 256.748 97.0934L254.896 101.722C255.685 102.038 256.474 102.276 257.247 102.392L257.986 97.4611ZM256.826 97.1262C256.445 96.9586 256.207 96.7721 256.05 96.5951L252.323 99.9073C253.017 100.688 253.869 101.272 254.818 101.69L256.826 97.1262ZM256.05 96.5951C255.918 96.4467 255.68 96.0842 255.42 95.3476L250.719 97.0069C251.097 98.0783 251.604 99.0984 252.323 99.9073L256.05 96.5951ZM255.441 95.4099C255.248 94.8131 255.124 94.0199 255.124 92.9865H250.138C250.138 94.3993 250.306 95.7332 250.698 96.9445L255.441 95.4099ZM255.124 92.9865V85.3287H250.138V92.9865H255.124ZM252.631 82.8359H249.6V87.8214H252.631V82.8359ZM252.093 85.3287V80.5027H247.107V85.3287H252.093ZM249.6 82.9954H252.631V78.0099H249.6V82.9954ZM255.124 80.5027V74.7992H250.138V80.5027H255.124ZM252.631 77.292H258.733V72.3064H252.631V77.292ZM256.241 74.7992V80.5027H261.226V74.7992H256.241ZM258.733 82.9954H263.081V78.0099H258.733V82.9954ZM260.588 80.5027V85.3287H265.573V80.5027H260.588ZM263.081 82.8359H258.733V87.8214H263.081V82.8359ZM256.241 85.3287V91.7102H261.226V85.3287H256.241ZM256.241 91.7102C256.241 93.0843 256.433 94.8898 257.649 96.1052L261.174 92.5799C261.368 92.774 261.363 92.9014 261.317 92.7236C261.273 92.5552 261.226 92.2349 261.226 91.7102H256.241ZM257.703 96.1578C258.779 97.1703 260.156 97.4734 261.406 97.4734V92.4879C261.161 92.4879 261.042 92.4575 261.009 92.447C260.986 92.4397 261.043 92.4553 261.12 92.5273L257.703 96.1578ZM267.972 98.5304L266.507 100.548L267.972 98.5304ZM265.499 93.9437V91.4509H263.006V93.9437H265.499ZM271.561 93.9437H274.054V91.4509H271.561V93.9437ZM272.439 95.5789L270.972 97.5949L272.439 95.5789ZM276.307 95.7385L274.812 93.7443L274.781 93.7676L274.75 93.792L276.307 95.7385ZM275.55 92.787L274.935 95.203L274.965 95.2104L274.994 95.2171L275.55 92.787ZM270.843 91.5905L270.229 94.0064L270.843 91.5905ZM267.254 89.5564L269.143 87.9298L267.254 89.5564ZM268.251 81.6593L269.746 83.6535L269.758 83.6451L269.769 83.6365L268.251 81.6593ZM280.575 81.5397L279.109 83.5557L279.117 83.5619L279.126 83.5681L280.575 81.5397ZM282.809 85.9269V88.4197H285.301V85.9269H282.809ZM276.786 85.9269H274.293V88.4197H276.786V85.9269ZM276.068 84.3715L274.483 86.2957L274.51 86.3178L274.538 86.3391L276.068 84.3715ZM273.595 87.1235L274.249 84.718L274.241 84.7158L273.595 87.1235ZM278.142 88.3599L277.488 90.7653L277.498 90.768L277.508 90.7706L278.142 88.3599ZM281.692 90.3541L279.852 92.0361L279.877 92.0636L279.903 92.0903L281.692 90.3541ZM280.735 98.5304L282.296 100.474L282.3 100.47L280.735 98.5304ZM274.592 97.8324C272.168 97.8324 270.53 97.3072 269.436 96.513L266.507 100.548C268.71 102.147 271.486 102.818 274.592 102.818V97.8324ZM269.436 96.513C268.362 95.7339 267.991 94.9228 267.991 93.9437H263.006C263.006 96.6871 264.284 98.9338 266.507 100.548L269.436 96.513ZM265.499 96.4365H271.561V91.4509H265.499V96.4365ZM269.068 93.9437C269.068 95.4844 269.809 96.7485 270.972 97.5949L273.905 93.563C273.865 93.5337 273.918 93.563 273.977 93.6724C274.005 93.7245 274.026 93.7801 274.039 93.834C274.052 93.8872 274.054 93.9259 274.054 93.9437H269.068ZM270.972 97.5949C272.091 98.4087 273.406 98.7099 274.712 98.7099V93.7243C274.157 93.7243 273.956 93.6 273.905 93.563L270.972 97.5949ZM274.712 98.7099C275.771 98.7099 276.906 98.4521 277.865 97.685L274.75 93.792C274.783 93.7655 274.815 93.7454 274.843 93.7311C274.871 93.717 274.889 93.7111 274.893 93.7098C274.9 93.7077 274.848 93.7243 274.712 93.7243V98.7099ZM277.803 97.7327C278.892 96.916 279.438 95.7194 279.438 94.4223H274.453C274.453 94.3796 274.463 94.2483 274.543 94.0826C274.625 93.9128 274.736 93.801 274.812 93.7443L277.803 97.7327ZM279.438 94.4223C279.438 93.5285 279.191 92.5558 278.492 91.7369C277.812 90.9403 276.921 90.5434 276.105 90.3569L274.994 95.2171C275.109 95.2434 274.915 95.2254 274.701 94.9739C274.596 94.8517 274.528 94.7191 274.489 94.6015C274.471 94.5462 274.462 94.5011 274.457 94.47C274.453 94.4393 274.453 94.4225 274.453 94.4223H279.438ZM276.164 90.3711L271.457 89.1746L270.229 94.0064L274.935 95.203L276.164 90.3711ZM271.457 89.1746C270.245 88.8664 269.55 88.403 269.143 87.9298L265.365 91.183C266.606 92.6242 268.304 93.517 270.229 94.0064L271.457 89.1746ZM269.143 87.9298C268.746 87.469 268.51 86.893 268.51 86.0466H263.524C263.524 87.9655 264.113 89.7294 265.365 91.183L269.143 87.9298ZM268.51 86.0466C268.51 85.0499 268.863 84.3158 269.746 83.6535L266.755 79.6651C264.66 81.2364 263.524 83.4272 263.524 86.0466H268.51ZM269.769 83.6365C270.698 82.9232 272.102 82.4371 274.233 82.4371V77.4515C271.366 77.4515 268.782 78.1087 266.733 79.6822L269.769 83.6365ZM274.233 82.4371C276.734 82.4371 278.244 82.9269 279.109 83.5557L282.041 79.5237C279.981 78.0253 277.263 77.4515 274.233 77.4515V82.4371ZM279.126 83.5681C279.947 84.1543 280.316 84.8543 280.316 85.9269H285.301C285.301 83.2771 284.181 81.0522 282.024 79.5112L279.126 83.5681ZM282.809 83.4342H276.786V88.4197H282.809V83.4342ZM279.279 85.9269C279.279 84.578 278.748 83.2982 277.598 82.4038L274.538 86.3391C274.482 86.2961 274.401 86.209 274.343 86.0841C274.289 85.9664 274.293 85.8965 274.293 85.9269H279.279ZM277.653 82.4472C276.603 81.5828 275.324 81.3203 274.154 81.3203V86.3058C274.384 86.3058 274.507 86.3324 274.552 86.3457C274.591 86.357 274.551 86.3515 274.483 86.2957L277.653 82.4472ZM274.154 81.3203C273.139 81.3203 272.036 81.5436 271.084 82.2416L274.032 86.262C273.96 86.3148 273.91 86.3281 273.917 86.3263C273.929 86.323 274 86.3058 274.154 86.3058V81.3203ZM271.084 82.2416C270.07 82.9852 269.467 84.105 269.467 85.4084H274.453C274.453 85.5261 274.425 85.7092 274.324 85.9056C274.224 86.0991 274.1 86.2127 274.032 86.262L271.084 82.2416ZM269.467 85.4084C269.467 86.4202 269.814 87.4083 270.565 88.1955C271.26 88.9252 272.142 89.3145 272.949 89.5311L274.241 84.7158C273.958 84.64 274.022 84.5972 274.173 84.7552C274.256 84.8419 274.336 84.9607 274.39 85.1023C274.443 85.2406 274.453 85.3518 274.453 85.4084H269.467ZM272.941 89.5289L277.488 90.7653L278.796 85.9545L274.249 84.7181L272.941 89.5289ZM277.508 90.7706C278.672 91.0771 279.395 91.5363 279.852 92.0361L283.531 88.6721C282.287 87.3106 280.643 86.4404 278.776 85.9492L277.508 90.7706ZM279.903 92.0903C280.302 92.5014 280.515 92.9835 280.515 93.7044H285.501C285.501 91.7663 284.836 90.0148 283.481 88.6179L279.903 92.0903ZM280.515 93.7044C280.515 94.966 280.082 95.8536 279.169 96.5905L282.3 100.47C284.418 98.7609 285.501 96.4312 285.501 93.7044H280.515ZM279.173 96.5872C278.264 97.3178 276.836 97.8324 274.592 97.8324V102.818C277.561 102.818 280.227 102.136 282.296 100.474L279.173 96.5872Z" fill="white"/>
</svg>
