<svg width="72" height="84" viewBox="0 0 72 84" fill="none" xmlns="http://www.w3.org/2000/svg">
<path d="M68.5122 40.1243C65.4738 36.5761 64.0931 33.5014 64.0931 28.2776V26.5015C64.0931 19.6943 62.5264 15.3083 59.1201 10.9224C53.8702 4.11103 45.032 0.00576019 36.3799 0.00576019H36.012C27.5418 0.00576019 18.9806 3.92252 13.6397 10.4574C10.0474 14.9313 8.29875 19.5058 8.29875 26.5015V28.2776C8.29875 33.5014 7.00899 36.5761 3.87968 40.1243C1.57713 42.7382 0.841309 46.0978 0.841309 49.7339C0.841309 53.3742 2.03599 56.8218 4.43361 59.6243C7.56293 62.9839 11.982 65.1287 16.4961 65.5015C23.0317 66.2472 29.5673 66.5278 36.198 66.5278C42.8245 66.5278 49.3601 66.0587 55.8999 65.5015C60.4099 65.1287 64.829 62.9839 67.9583 59.6243C70.3518 56.8218 71.5506 53.3742 71.5506 49.7339C71.5506 46.0978 70.8148 42.7382 68.5122 40.1243Z" fill="#0057FF"/>
<path opacity="0.4" d="M44.5508 71.6648C42.4715 71.2208 29.8013 71.2208 27.722 71.6648C25.9445 72.0754 24.0222 73.0305 24.0222 75.125C24.1256 77.1232 25.2954 78.8867 26.9159 80.0052L26.9118 80.0094C29.0076 81.6431 31.4673 82.682 34.0426 83.0548C35.4151 83.2434 36.8123 83.235 38.2343 83.0548C40.8056 82.682 43.2652 81.6431 45.3611 80.0094L45.3569 80.0052C46.9774 78.8867 48.1473 77.1232 48.2506 75.125C48.2506 73.0305 46.3284 72.0754 44.5508 71.6648Z" fill="#0057FF"/>
</svg>
