<svg width="84" height="84" viewBox="0 0 84 84" fill="none" xmlns="http://www.w3.org/2000/svg">
<path d="M36.2217 71.9898C55.9754 71.9898 71.989 55.8756 71.989 35.9978C71.989 16.1199 55.9754 0.00576019 36.2217 0.00576019C16.4679 0.00576019 0.454346 16.1199 0.454346 35.9978C0.454346 55.8756 16.4679 71.9898 36.2217 71.9898Z" fill="#A6A6A6"/>
<path opacity="0.4" d="M78.129 83.007C76.7396 82.962 75.4184 82.3903 74.4302 81.4065L65.9599 71.5059C64.144 69.8453 63.9955 67.0228 65.6271 65.1785C66.3907 64.4057 67.4291 63.9712 68.5121 63.9712C69.5952 63.9712 70.6335 64.4057 71.3972 65.1785L82.0497 73.7019C83.5841 75.2725 84.0576 77.604 83.2586 79.6544C82.4595 81.7048 80.5372 83.0909 78.3509 83.1931L78.129 83.007Z" fill="#A6A6A6"/>
</svg>
